<?xml version="1.0" standalone="no"?>
<!DOCTYPE svg PUBLIC "-//W3C//DTD SVG 20010904//EN"
 "http://www.w3.org/TR/2001/REC-SVG-20010904/DTD/svg10.dtd">
<svg version="1.0" xmlns="http://www.w3.org/2000/svg"
 width="100.000000pt" height="100.000000pt" viewBox="0 0 100.000000 100.000000"
 preserveAspectRatio="xMidYMid meet">

<g transform="translate(0.000000,100.000000) scale(0.100000,-0.100000)"
fill="#000000" stroke="none">
<path d="M323 949 c-17 -5 -49 -29 -71 -54 -22 -25 -44 -45 -50 -45 -20 0 -73
-53 -93 -93 -25 -47 -35 -129 -22 -177 9 -34 11 -35 61 -38 41 -2 55 1 71 17
26 26 55 27 81 1 25 -25 25 -55 0 -80 -25 -25 -55 -25 -80 0 -14 14 -33 20
-68 20 -43 0 -50 -3 -60 -25 -25 -54 -5 -127 44 -162 24 -17 28 -27 28 -71 1
-59 27 -94 85 -113 19 -7 44 -23 54 -36 45 -56 122 -70 156 -27 19 24 21 40
21 180 l0 154 -60 0 -60 0 0 -40 c0 -27 7 -47 20 -60 11 -11 20 -29 20 -40 0
-26 -34 -60 -60 -60 -26 0 -60 34 -60 60 0 11 9 29 20 40 16 16 20 33 20 80
l0 60 80 0 80 0 0 80 0 80 -60 0 -60 0 0 50 c0 43 -3 50 -20 50 -11 0 -29 -9
-40 -20 -11 -11 -29 -20 -40 -20 -26 0 -60 34 -60 60 0 26 34 60 60 60 11 0
29 -9 40 -20 13 -13 33 -20 60 -20 l40 0 0 -50 0 -50 40 0 40 0 0 135 c0 131
-1 137 -25 160 -26 27 -71 32 -132 14z"/>
<path d="M545 935 c-23 -22 -25 -32 -25 -110 l0 -85 80 0 c67 0 83 3 100 20
11 11 29 20 40 20 11 0 29 -9 40 -20 11 -11 20 -29 20 -40 0 -26 -34 -60 -60
-60 -11 0 -29 9 -40 20 -17 17 -33 20 -100 20 l-80 0 0 -210 0 -210 40 0 c27
0 47 7 60 20 25 25 55 25 80 0 25 -25 25 -55 0 -80 -25 -25 -55 -25 -80 0 -13
13 -33 20 -60 20 l-40 0 0 -74 c0 -59 4 -78 21 -100 34 -43 111 -29 156 27 10
13 35 29 54 36 20 6 47 23 60 37 24 26 26 43 13 157 l-6 57 -89 0 -89 0 0 50
c0 37 -5 55 -20 70 -11 11 -20 29 -20 40 0 11 9 29 20 40 11 11 29 20 40 20
26 0 60 -34 60 -60 0 -11 -9 -29 -20 -40 -11 -11 -20 -33 -20 -50 l0 -30 90 0
90 0 0 -56 c0 -51 1 -55 17 -43 21 18 43 71 43 104 0 14 -7 39 -15 55 -14 27
-14 35 1 81 31 92 2 205 -66 263 -17 14 -36 26 -42 26 -6 0 -28 20 -50 45 -60
68 -157 87 -203 40z"/>
<path d="M244 729 c-10 -17 13 -36 27 -22 12 12 4 33 -11 33 -5 0 -12 -5 -16
-11z"/>
<path d="M724 729 c-10 -17 13 -36 27 -22 12 12 4 33 -11 33 -5 0 -12 -5 -16
-11z"/>
<path d="M644 549 c-10 -17 13 -36 27 -22 12 12 4 33 -11 33 -5 0 -12 -5 -16
-11z"/>
<path d="M244 529 c-10 -17 13 -36 27 -22 12 12 4 33 -11 33 -5 0 -12 -5 -16
-11z"/>
<path d="M324 269 c-10 -17 13 -36 27 -22 12 12 4 33 -11 33 -5 0 -12 -5 -16
-11z"/>
<path d="M644 269 c-10 -17 13 -36 27 -22 12 12 4 33 -11 33 -5 0 -12 -5 -16
-11z"/>
</g>
</svg>
